<svg width="51" height="51" viewBox="0 0 51 51" fill="none" xmlns="http://www.w3.org/2000/svg">
<path d="M21.2179 22.3784V32.3795C21.2179 33.5951 21.9362 34.2029 23.0413 34.2029C23.4281 34.2029 23.8149 34.2029 24.3674 34.1477C24.8095 34.0924 25.141 34.3134 25.141 34.7555V37.8497C25.141 38.8443 23.0413 39.0653 21.66 39.0653C18.3999 39.0653 15.4162 37.5735 15.4162 33.0426V22.3784H12.8192C12.4324 22.3784 12.2114 22.1022 12.2114 21.7706V18.5106C12.2114 18.1238 12.4877 17.9028 12.8192 17.9028H15.4162V13.0404C15.4162 12.6536 15.6925 12.4326 16.024 12.4326H20.6101C20.9969 12.4326 21.2179 12.7089 21.2179 13.0404V17.9028H24.4779C24.8647 17.9028 25.0858 18.1791 25.0858 18.5106V21.7706C25.0858 22.1574 24.8095 22.3784 24.4779 22.3784H21.2179Z" fill="#87C7C9"/>
<path d="M33.2633 22.3784V32.3795C33.2633 33.5951 33.9816 34.2029 35.0867 34.2029C35.4735 34.2029 35.8603 34.2029 36.4128 34.1477C36.8549 34.0924 37.1864 34.3134 37.1864 34.7555V37.8497C37.1864 38.8443 35.0867 39.0653 33.7054 39.0653C30.4453 39.0653 27.4616 37.5735 27.4616 33.0426V22.3784H24.8646C24.4779 22.3784 24.2568 22.1022 24.2568 21.7706V18.5106C24.2568 18.1238 24.5331 17.9028 24.8646 17.9028H27.4616V13.0404C27.4616 12.6536 27.7379 12.4326 28.0694 12.4326H32.6555C33.0423 12.4326 33.2633 12.7089 33.2633 13.0404V17.9028H36.5234C36.9101 17.9028 37.1312 18.1791 37.1312 18.5106V21.7706C37.1312 22.1574 36.8549 22.3784 36.5234 22.3784H33.2633Z" fill="#E87B43"/>
<path d="M33.2633 22.3784V32.3795C33.2633 33.5951 33.9816 34.2029 35.0867 34.2029C35.4735 34.2029 35.8603 34.2029 36.4128 34.1477C36.8549 34.0924 37.1864 34.3134 37.1864 34.7555V37.8497C37.1864 38.8443 35.0867 39.0653 33.7054 39.0653C30.4453 39.0653 27.4616 37.5735 27.4616 33.0426V22.3784H24.8646C24.4779 22.3784 24.2568 22.1022 24.2568 21.7706V18.5106C24.2568 18.1238 24.5331 17.9028 24.8646 17.9028H27.4616V13.0404C27.4616 12.6536 27.7379 12.4326 28.0694 12.4326H32.6555C33.0423 12.4326 33.2633 12.7089 33.2633 13.0404V17.9028H36.5234C36.9101 17.9028 37.1312 18.1791 37.1312 18.5106V21.7706C37.1312 22.1574 36.8549 22.3784 36.5234 22.3784H33.2633Z" fill="url(#paint0_linear)"/>
<path d="M50.5027 20.3894C50.1712 18.7317 49.6739 17.1293 49.0108 15.5822C48.3478 14.0903 47.5742 12.5985 46.6349 11.2723C45.6956 9.94624 44.6457 8.67538 43.5406 7.51504C42.3803 6.35469 41.1094 5.30485 39.7833 4.42078C38.4019 3.48145 36.9653 2.70789 35.4735 2.04483C33.9263 1.38177 32.3239 0.884483 30.6663 0.552956C27.2958 -0.1101 23.7595 -0.1101 20.3889 0.552956C18.7313 0.884483 17.1289 1.38177 15.5818 2.04483C14.532 2.48687 13.5374 2.98416 12.5428 3.59196C12.5428 3.59196 12.5428 3.59196 12.4875 3.59196C12.2113 3.75772 11.935 3.92349 11.6035 4.1445C11.5482 4.19976 11.493 4.19976 11.4377 4.25501L11.3824 4.31027C11.3272 4.36552 11.2719 4.36552 11.2167 4.42078C11.0509 4.53129 10.8299 4.69705 10.6641 4.80756C10.5536 4.91807 10.3879 4.97332 10.2774 5.08383C10.1116 5.19434 9.94583 5.36011 9.78006 5.47061C9.6143 5.58112 9.44854 5.74689 9.28277 5.8574C9.17226 5.91265 9.11701 6.02316 9.0065 6.07842C8.45395 6.52045 7.95666 7.01774 7.45937 7.51504C7.01733 7.95707 6.63055 8.39911 6.24377 8.84115C6.18852 8.8964 6.18852 8.95166 6.13326 8.95166C5.41495 9.78047 4.80715 10.6093 4.19935 11.4934C3.26002 12.8747 2.48646 14.3666 1.87866 15.9137C1.27086 17.4609 0.773564 19.008 0.497291 20.6656C0.165764 22.268 0 23.8704 0 25.528C0 27.1857 0.165764 28.7881 0.442037 30.3904C0.773564 31.9928 1.2156 33.5952 1.8234 35.1423C2.4312 36.6895 3.26002 38.1813 4.1441 39.5627C6.02275 42.4359 8.56446 44.9224 11.3824 46.8011C12.7638 47.7404 14.2557 48.514 15.8028 49.1218C17.3499 49.7296 18.8971 50.2268 20.5547 50.5031C22.1571 50.8346 23.8147 50.9452 25.4171 50.9452C26.2459 50.9452 27.0748 50.8899 27.9036 50.8346C27.9588 50.8346 28.0141 50.8346 28.0693 50.8346C28.4561 50.7794 28.7876 50.7241 29.1744 50.7241C29.6165 50.6689 30.1138 50.5584 30.5558 50.5031C32.2134 50.1716 33.8158 49.6743 35.3629 49.0112C36.8548 48.3482 38.3467 47.5746 39.6728 46.6353C40.9989 45.696 42.2698 44.7014 43.4301 43.541C44.5905 42.3807 45.6403 41.1098 46.5244 39.7837C47.4637 38.4024 48.2373 36.9657 48.9003 35.4739C49.5634 33.9267 50.0607 32.3244 50.3922 30.6667C50.7237 29.0091 50.8895 27.2409 50.8895 25.528C50.8895 23.8151 50.8342 22.047 50.5027 20.3894ZM49.0661 30.3352C48.7346 31.8823 48.2925 33.3742 47.6847 34.8661C47.0769 36.3027 46.3586 37.684 45.4745 38.9549C44.5905 40.2258 43.6511 41.4414 42.546 42.4912C41.441 43.5963 40.2806 44.5909 39.0098 45.4197C37.7389 46.3038 36.3575 47.0221 34.9209 47.6299C33.4843 48.2377 31.9372 48.735 30.39 49.0112C27.2405 49.6743 23.87 49.6743 20.7205 49.0112C19.1733 48.6797 17.6815 48.2377 16.1896 47.6299C14.753 47.0221 13.3716 46.3038 12.1008 45.4197C11.2719 44.8671 10.4431 44.2593 9.72481 43.5963C8.12243 42.1597 6.63055 40.502 5.47021 38.7339C4.58613 37.4078 3.86782 36.0264 3.26002 34.5345C2.70748 33.0979 2.21018 31.606 1.93391 30.0589C1.65764 28.567 1.49187 27.0199 1.49187 25.4728C1.49187 23.9257 1.65764 22.3785 1.93391 20.8867C2.21018 19.3395 2.65222 17.8476 3.26002 16.411C3.86782 14.9744 4.58613 13.5378 5.47021 12.2117C5.69122 11.8801 5.9675 11.4934 6.18852 11.1618L6.24377 11.1066C6.5753 10.6093 6.96208 10.1673 7.34886 9.72522C7.73564 9.28318 8.12243 8.84115 8.56446 8.39911C9.06176 7.90182 9.55905 7.45978 10.0563 7.01774C10.1116 6.96249 10.2221 6.90723 10.2774 6.85198C10.4431 6.74147 10.6089 6.57571 10.7746 6.4652C10.9404 6.35469 11.1062 6.18892 11.2719 6.07842C11.3824 6.02316 11.493 5.91265 11.6035 5.8574C11.8245 5.69163 12.0455 5.52587 12.2665 5.36011C12.3218 5.30485 12.4323 5.2496 12.4875 5.2496C12.7638 5.08383 13.0401 4.91807 13.3164 4.75231C14.3109 4.1445 15.3608 3.64721 16.4659 3.20518C17.9025 2.59738 19.3944 2.15534 20.9415 1.87907C22.4334 1.60279 23.9805 1.43703 25.5276 1.43703C27.0748 1.43703 28.6219 1.60279 30.1138 1.87907C31.6609 2.15534 33.1528 2.59738 34.5894 3.20518C36.026 3.81298 37.4626 4.53129 38.7887 5.41536C41.4962 7.18351 43.8722 9.55946 45.6403 12.2669C46.5244 13.593 47.2427 14.9744 47.8505 16.4663C48.403 17.9029 48.9003 19.3948 49.1766 20.9419C49.3424 21.7155 49.4529 22.489 49.5081 23.2626C49.5634 24.0362 49.6186 24.7545 49.6186 25.528C49.5634 27.1304 49.3976 28.7881 49.0661 30.3352Z" fill="#87C7C9"/>
<path d="M47.4636 20.9972C47.1873 19.5606 46.7453 18.124 46.1375 16.7979C45.5849 15.4718 44.8666 14.2009 44.0931 12.9853C43.3195 11.825 42.3802 10.6646 41.3303 9.67002C40.3358 8.67544 39.1754 7.73611 38.0151 6.90729C37.6283 6.63102 37.2415 6.41 36.8547 6.18898C36.5232 6.02322 36.2469 5.85746 35.9154 5.63644C35.9154 5.63644 35.9154 5.63644 35.8601 5.63644C35.5286 5.47067 35.1971 5.30491 34.9208 5.13915C34.9208 5.13915 34.9208 5.13915 34.8656 5.13915C34.6445 5.02864 34.4235 4.91813 34.2025 4.80762C34.092 4.75236 34.0367 4.75236 33.9262 4.69711C33.9262 4.69711 33.9262 4.69711 33.871 4.69711C32.6001 4.19982 31.3293 3.81304 30.0032 3.53676C29.5611 3.42625 29.1191 3.371 28.677 3.31575C28.3455 3.26049 27.9587 3.20524 27.6272 3.20524C27.5719 3.20524 27.4614 3.20524 27.4062 3.20524C27.1299 3.20524 26.8536 3.14998 26.5774 3.14998C26.1906 3.14998 25.8591 3.09473 25.4723 3.09473C25.0855 3.09473 24.754 3.09473 24.3672 3.14998C24.2567 3.14998 24.1462 3.14998 24.0357 3.14998C23.7594 3.14998 23.5384 3.20524 23.2621 3.20524C23.0411 3.20524 22.8201 3.26049 22.599 3.26049C22.4333 3.26049 22.3228 3.31575 22.157 3.31575C21.8807 3.371 21.6597 3.371 21.4387 3.42625C21.3282 3.42625 21.2729 3.48151 21.1624 3.48151H21.1072C21.0519 3.48151 20.9967 3.48151 20.9414 3.53676C20.7204 3.59202 20.5546 3.64727 20.3336 3.70253C20.2231 3.70253 20.1126 3.75778 20.0573 3.75778C19.8363 3.81304 19.6153 3.86829 19.339 3.92355C19.2285 3.9788 19.0627 3.9788 18.9522 4.03405C18.7865 4.08931 18.5654 4.14456 18.3997 4.19982C18.2339 4.25507 18.0682 4.31033 17.9024 4.36558C17.7366 4.42084 17.6261 4.47609 17.4604 4.53135C17.2946 4.5866 17.1841 4.64186 17.0183 4.69711C16.9631 4.69711 16.9078 4.75236 16.8526 4.75236C16.7973 4.75236 16.7973 4.75236 16.742 4.80762C16.6868 4.86287 16.5763 4.86287 16.521 4.91813C16.3 5.02864 16.079 5.13915 15.858 5.24966C15.8027 5.30491 15.6922 5.30491 15.637 5.36017C15.3607 5.47067 15.1397 5.63644 14.8634 5.74695C14.8081 5.74695 14.8081 5.8022 14.7529 5.8022C14.4766 5.96797 14.2003 6.13373 13.9241 6.29949C13.703 6.46526 13.4268 6.57577 13.2058 6.74153C11.9349 7.57035 10.7745 8.56493 9.66946 9.61477C8.61962 10.6646 7.62504 11.8802 6.79622 13.1511C5.9674 14.3667 5.30434 15.6928 4.7518 17.0741C4.19925 18.4003 3.81247 19.8369 3.5362 21.2182C3.25992 22.5996 3.14941 24.0915 3.14941 25.5281C3.14941 26.9647 3.31518 28.4013 3.5362 29.838C3.81247 31.2746 4.19925 32.6559 4.7518 33.982C5.30434 35.3634 6.02265 36.6343 6.79622 37.9051C7.62504 39.176 8.56437 40.3363 9.66946 41.4414C10.7745 42.5465 11.9349 43.4858 13.2058 44.3147C14.3661 45.0882 15.5817 45.696 16.7973 46.2486C16.9078 46.3038 16.9631 46.3038 17.0736 46.3591C17.2946 46.4696 17.5156 46.5248 17.7919 46.6354H17.8471C18.1234 46.7459 18.4549 46.8564 18.7865 46.9669C18.8417 46.9669 18.897 47.0221 18.9522 47.0221C19.2285 47.1326 19.5048 47.1879 19.8363 47.2432C19.8916 47.2432 20.0021 47.2984 20.0573 47.2984C20.3336 47.3537 20.6099 47.4089 20.8861 47.4642C20.9414 47.4642 21.0519 47.5194 21.1072 47.5194H21.1624C21.2177 47.5194 21.2729 47.5194 21.3282 47.5747C21.5492 47.6299 21.7702 47.6299 22.0465 47.6852C22.1017 47.6852 22.2123 47.6852 22.2675 47.7404C22.599 47.7957 22.9306 47.851 23.2621 47.851H23.3173C24.0909 47.9062 24.8092 47.9615 25.5828 47.9615C25.7485 47.9615 25.9143 47.9615 26.0801 47.9615C26.3011 47.9615 26.5774 47.9615 26.7984 47.9615C26.9089 47.9615 27.0194 47.9615 27.1852 47.9615C27.5167 47.9615 27.8482 47.9062 28.1797 47.851C28.235 47.851 28.235 47.851 28.2903 47.851C28.8981 47.7957 29.5059 47.6852 30.1137 47.5747C31.5503 47.2984 32.9869 46.8564 34.313 46.2486C35.6391 45.696 36.91 44.9777 38.1256 44.2042C39.2859 43.3753 40.4463 42.4913 41.4409 41.4414C42.4354 40.4468 43.3748 39.2865 44.2036 38.1261C45.0324 36.9105 45.6955 35.6397 46.248 34.3136C46.8005 32.9875 47.2426 31.5508 47.5741 30.1142C47.8504 28.6224 48.0162 27.1305 48.0162 25.5833C47.9056 23.981 47.7399 22.4338 47.4636 20.9972ZM45.9717 29.7274C45.6955 31.0536 45.3087 32.3797 44.7561 33.6505C44.2588 34.8661 43.5958 36.0817 42.8222 37.1868C42.0487 38.2919 41.2198 39.3417 40.2805 40.2811C39.3412 41.2204 38.2913 42.1045 37.1862 42.8228C36.0812 43.5964 34.8656 44.2042 33.65 44.7567C32.3791 45.3092 31.053 45.696 29.7269 45.9723C29.1191 46.0828 28.456 46.1933 27.793 46.2486C27.5719 46.2486 27.3509 46.3038 27.1299 46.3038C26.9641 46.3038 26.7431 46.3591 26.5774 46.3591C26.4669 46.3591 26.3563 46.3591 26.2458 46.3591C25.9696 46.3591 25.7485 46.3591 25.4723 46.3591C24.4224 46.3591 23.3726 46.3038 22.3228 46.1381C22.2675 46.1381 22.2122 46.1381 22.157 46.0828C21.8807 46.0276 21.6045 45.9723 21.3282 45.917C21.2177 45.917 21.1624 45.8618 21.0519 45.8618C20.7756 45.8065 20.5546 45.7513 20.2783 45.696C20.2231 45.696 20.1678 45.6408 20.0573 45.6408C19.781 45.5855 19.5048 45.475 19.2285 45.4198C19.1732 45.4198 19.118 45.4198 19.118 45.3645C18.8417 45.254 18.5102 45.1987 18.2339 45.0882C18.2339 45.0882 18.2339 45.0882 18.1787 45.0882C17.8471 44.9777 17.5709 44.8672 17.2393 44.7014C16.0237 44.1489 14.8081 43.5411 13.703 42.7675C13.2058 42.436 12.6532 42.0492 12.1559 41.6072C11.6034 41.1651 11.1061 40.6679 10.6088 40.1706C9.6142 39.176 8.67487 38.0709 7.95656 36.9105C7.183 35.7502 6.5752 34.5346 6.02265 33.2637C5.52536 31.9929 5.13858 30.722 4.86231 29.3959C4.58603 28.0698 4.47552 26.7437 4.47552 25.4176C4.47552 24.0915 4.58603 22.7101 4.86231 21.4393C5.13858 20.1131 5.52536 18.787 6.02265 17.5714C6.51994 16.3006 7.183 15.085 7.95656 13.9246C8.28809 13.4273 8.61962 12.9853 9.0064 12.488C9.50369 11.825 10.0562 11.2172 10.664 10.6646C11.6034 9.72528 12.6532 8.84121 13.7583 8.1229C14.0346 7.95713 14.3108 7.73611 14.5871 7.57035C14.8634 7.40459 15.1397 7.23882 15.3607 7.12831C15.4159 7.12831 15.4159 7.07306 15.4712 7.07306C15.6922 6.96255 15.9685 6.85204 16.1895 6.68628C16.2448 6.63102 16.3553 6.63102 16.4105 6.57577C16.6315 6.46526 16.7973 6.41 17.0183 6.29949C17.1288 6.24424 17.2393 6.18898 17.3498 6.13373C17.5156 6.07848 17.7366 5.96797 17.9024 5.91271C18.0682 5.85746 18.1787 5.8022 18.3444 5.74695C18.5102 5.69169 18.676 5.63644 18.7865 5.58118C18.9522 5.52593 19.118 5.47067 19.339 5.41542C19.4495 5.36017 19.56 5.36017 19.6705 5.30491C19.8916 5.24966 20.1126 5.1944 20.3336 5.13915C20.4441 5.13915 20.4994 5.08389 20.6099 5.08389C20.8309 5.02864 21.1072 4.97338 21.3282 4.91813C21.5492 4.97338 21.6045 4.97338 21.715 4.97338C21.936 4.91813 22.2122 4.86287 22.4333 4.86287C22.5438 4.86287 22.6543 4.86287 22.7648 4.80762C22.9858 4.75236 23.2068 4.75236 23.4279 4.75236C23.5936 4.75236 23.7594 4.75236 23.9251 4.69711C24.0909 4.69711 24.2567 4.64186 24.4224 4.64186C24.754 4.64186 25.0855 4.64186 25.4723 4.64186C25.5828 4.64186 25.7485 4.64186 25.8591 4.64186C26.0801 4.64186 26.2458 4.64186 26.4669 4.64186C26.7431 4.64186 27.0747 4.69711 27.3509 4.69711C27.4062 4.69711 27.4062 4.69711 27.4614 4.69711C28.1245 4.75236 28.7875 4.86287 29.4506 4.97338C30.7767 5.24966 32.0476 5.63644 33.3184 6.13373C33.9262 6.41 34.5893 6.68628 35.1971 7.0178C35.4734 7.18357 35.8049 7.34933 36.0812 7.51509C36.3574 7.68086 36.689 7.84662 36.9652 8.06764C38.1256 8.84121 39.2307 9.72528 40.2253 10.7199C41.2198 11.7144 42.1592 12.8195 42.8775 13.9799C43.651 15.1402 44.2588 16.3558 44.8114 17.6267C45.3087 18.8975 45.6955 20.1684 45.9717 21.4945C46.0822 22.1023 46.1927 22.7101 46.248 23.3732C46.3033 24.0915 46.3585 24.7545 46.3585 25.4728C46.3585 26.9095 46.248 28.3461 45.9717 29.7274Z" fill="#E87B43"/>
<path d="M47.4636 20.9972C47.1873 19.5606 46.7453 18.124 46.1375 16.7979C45.5849 15.4718 44.8666 14.2009 44.0931 12.9853C43.3195 11.825 42.3802 10.6646 41.3303 9.67002C40.3358 8.67544 39.1754 7.73611 38.0151 6.90729C37.6283 6.63102 37.2415 6.41 36.8547 6.18898C36.5232 6.02322 36.2469 5.85746 35.9154 5.63644C35.9154 5.63644 35.9154 5.63644 35.8601 5.63644C35.5286 5.47067 35.1971 5.30491 34.9208 5.13915C34.9208 5.13915 34.9208 5.13915 34.8656 5.13915C34.6445 5.02864 34.4235 4.91813 34.2025 4.80762C34.092 4.75236 34.0367 4.75236 33.9262 4.69711C33.9262 4.69711 33.9262 4.69711 33.871 4.69711C32.6001 4.19982 31.3293 3.81304 30.0032 3.53676C29.5611 3.42625 29.1191 3.371 28.677 3.31575C28.3455 3.26049 27.9587 3.20524 27.6272 3.20524C27.5719 3.20524 27.4614 3.20524 27.4062 3.20524C27.1299 3.20524 26.8536 3.14998 26.5774 3.14998C26.1906 3.14998 25.8591 3.09473 25.4723 3.09473C25.0855 3.09473 24.754 3.09473 24.3672 3.14998C24.2567 3.14998 24.1462 3.14998 24.0357 3.14998C23.7594 3.14998 23.5384 3.20524 23.2621 3.20524C23.0411 3.20524 22.8201 3.26049 22.599 3.26049C22.4333 3.26049 22.3228 3.31575 22.157 3.31575C21.8807 3.371 21.6597 3.371 21.4387 3.42625C21.3282 3.42625 21.2729 3.48151 21.1624 3.48151H21.1072C21.0519 3.48151 20.9967 3.48151 20.9414 3.53676C20.7204 3.59202 20.5546 3.64727 20.3336 3.70253C20.2231 3.70253 20.1126 3.75778 20.0573 3.75778C19.8363 3.81304 19.6153 3.86829 19.339 3.92355C19.2285 3.9788 19.0627 3.9788 18.9522 4.03405C18.7865 4.08931 18.5654 4.14456 18.3997 4.19982C18.2339 4.25507 18.0682 4.31033 17.9024 4.36558C17.7366 4.42084 17.6261 4.47609 17.4604 4.53135C17.2946 4.5866 17.1841 4.64186 17.0183 4.69711C16.9631 4.69711 16.9078 4.75236 16.8526 4.75236C16.7973 4.75236 16.7973 4.75236 16.742 4.80762C16.6868 4.86287 16.5763 4.86287 16.521 4.91813C16.3 5.02864 16.079 5.13915 15.858 5.24966C15.8027 5.30491 15.6922 5.30491 15.637 5.36017C15.3607 5.47067 15.1397 5.63644 14.8634 5.74695C14.8081 5.74695 14.8081 5.8022 14.7529 5.8022C14.4766 5.96797 14.2003 6.13373 13.9241 6.29949C13.703 6.46526 13.4268 6.57577 13.2058 6.74153C11.9349 7.57035 10.7745 8.56493 9.66946 9.61477C8.61962 10.6646 7.62504 11.8802 6.79622 13.1511C5.9674 14.3667 5.30434 15.6928 4.7518 17.0741C4.19925 18.4003 3.81247 19.8369 3.5362 21.2182C3.25992 22.5996 3.14941 24.0915 3.14941 25.5281C3.14941 26.9647 3.31518 28.4013 3.5362 29.838C3.81247 31.2746 4.19925 32.6559 4.7518 33.982C5.30434 35.3634 6.02265 36.6343 6.79622 37.9051C7.62504 39.176 8.56437 40.3363 9.66946 41.4414C10.7745 42.5465 11.9349 43.4858 13.2058 44.3147C14.3661 45.0882 15.5817 45.696 16.7973 46.2486C16.9078 46.3038 16.9631 46.3038 17.0736 46.3591C17.2946 46.4696 17.5156 46.5248 17.7919 46.6354H17.8471C18.1234 46.7459 18.4549 46.8564 18.7865 46.9669C18.8417 46.9669 18.897 47.0221 18.9522 47.0221C19.2285 47.1326 19.5048 47.1879 19.8363 47.2432C19.8916 47.2432 20.0021 47.2984 20.0573 47.2984C20.3336 47.3537 20.6099 47.4089 20.8861 47.4642C20.9414 47.4642 21.0519 47.5194 21.1072 47.5194H21.1624C21.2177 47.5194 21.2729 47.5194 21.3282 47.5747C21.5492 47.6299 21.7702 47.6299 22.0465 47.6852C22.1017 47.6852 22.2123 47.6852 22.2675 47.7404C22.599 47.7957 22.9306 47.851 23.2621 47.851H23.3173C24.0909 47.9062 24.8092 47.9615 25.5828 47.9615C25.7485 47.9615 25.9143 47.9615 26.0801 47.9615C26.3011 47.9615 26.5774 47.9615 26.7984 47.9615C26.9089 47.9615 27.0194 47.9615 27.1852 47.9615C27.5167 47.9615 27.8482 47.9062 28.1797 47.851C28.235 47.851 28.235 47.851 28.2903 47.851C28.8981 47.7957 29.5059 47.6852 30.1137 47.5747C31.5503 47.2984 32.9869 46.8564 34.313 46.2486C35.6391 45.696 36.91 44.9777 38.1256 44.2042C39.2859 43.3753 40.4463 42.4913 41.4409 41.4414C42.4354 40.4468 43.3748 39.2865 44.2036 38.1261C45.0324 36.9105 45.6955 35.6397 46.248 34.3136C46.8005 32.9875 47.2426 31.5508 47.5741 30.1142C47.8504 28.6224 48.0162 27.1305 48.0162 25.5833C47.9056 23.981 47.7399 22.4338 47.4636 20.9972ZM45.9717 29.7274C45.6955 31.0536 45.3087 32.3797 44.7561 33.6505C44.2588 34.8661 43.5958 36.0817 42.8222 37.1868C42.0487 38.2919 41.2198 39.3417 40.2805 40.2811C39.3412 41.2204 38.2913 42.1045 37.1862 42.8228C36.0812 43.5964 34.8656 44.2042 33.65 44.7567C32.3791 45.3092 31.053 45.696 29.7269 45.9723C29.1191 46.0828 28.456 46.1933 27.793 46.2486C27.5719 46.2486 27.3509 46.3038 27.1299 46.3038C26.9641 46.3038 26.7431 46.3591 26.5774 46.3591C26.4669 46.3591 26.3563 46.3591 26.2458 46.3591C25.9696 46.3591 25.7485 46.3591 25.4723 46.3591C24.4224 46.3591 23.3726 46.3038 22.3228 46.1381C22.2675 46.1381 22.2122 46.1381 22.157 46.0828C21.8807 46.0276 21.6045 45.9723 21.3282 45.917C21.2177 45.917 21.1624 45.8618 21.0519 45.8618C20.7756 45.8065 20.5546 45.7513 20.2783 45.696C20.2231 45.696 20.1678 45.6408 20.0573 45.6408C19.781 45.5855 19.5048 45.475 19.2285 45.4198C19.1732 45.4198 19.118 45.4198 19.118 45.3645C18.8417 45.254 18.5102 45.1987 18.2339 45.0882C18.2339 45.0882 18.2339 45.0882 18.1787 45.0882C17.8471 44.9777 17.5709 44.8672 17.2393 44.7014C16.0237 44.1489 14.8081 43.5411 13.703 42.7675C13.2058 42.436 12.6532 42.0492 12.1559 41.6072C11.6034 41.1651 11.1061 40.6679 10.6088 40.1706C9.6142 39.176 8.67487 38.0709 7.95656 36.9105C7.183 35.7502 6.5752 34.5346 6.02265 33.2637C5.52536 31.9929 5.13858 30.722 4.86231 29.3959C4.58603 28.0698 4.47552 26.7437 4.47552 25.4176C4.47552 24.0915 4.58603 22.7101 4.86231 21.4393C5.13858 20.1131 5.52536 18.787 6.02265 17.5714C6.51994 16.3006 7.183 15.085 7.95656 13.9246C8.28809 13.4273 8.61962 12.9853 9.0064 12.488C9.50369 11.825 10.0562 11.2172 10.664 10.6646C11.6034 9.72528 12.6532 8.84121 13.7583 8.1229C14.0346 7.95713 14.3108 7.73611 14.5871 7.57035C14.8634 7.40459 15.1397 7.23882 15.3607 7.12831C15.4159 7.12831 15.4159 7.07306 15.4712 7.07306C15.6922 6.96255 15.9685 6.85204 16.1895 6.68628C16.2448 6.63102 16.3553 6.63102 16.4105 6.57577C16.6315 6.46526 16.7973 6.41 17.0183 6.29949C17.1288 6.24424 17.2393 6.18898 17.3498 6.13373C17.5156 6.07848 17.7366 5.96797 17.9024 5.91271C18.0682 5.85746 18.1787 5.8022 18.3444 5.74695C18.5102 5.69169 18.676 5.63644 18.7865 5.58118C18.9522 5.52593 19.118 5.47067 19.339 5.41542C19.4495 5.36017 19.56 5.36017 19.6705 5.30491C19.8916 5.24966 20.1126 5.1944 20.3336 5.13915C20.4441 5.13915 20.4994 5.08389 20.6099 5.08389C20.8309 5.02864 21.1072 4.97338 21.3282 4.91813C21.5492 4.97338 21.6045 4.97338 21.715 4.97338C21.936 4.91813 22.2122 4.86287 22.4333 4.86287C22.5438 4.86287 22.6543 4.86287 22.7648 4.80762C22.9858 4.75236 23.2068 4.75236 23.4279 4.75236C23.5936 4.75236 23.7594 4.75236 23.9251 4.69711C24.0909 4.69711 24.2567 4.64186 24.4224 4.64186C24.754 4.64186 25.0855 4.64186 25.4723 4.64186C25.5828 4.64186 25.7485 4.64186 25.8591 4.64186C26.0801 4.64186 26.2458 4.64186 26.4669 4.64186C26.7431 4.64186 27.0747 4.69711 27.3509 4.69711C27.4062 4.69711 27.4062 4.69711 27.4614 4.69711C28.1245 4.75236 28.7875 4.86287 29.4506 4.97338C30.7767 5.24966 32.0476 5.63644 33.3184 6.13373C33.9262 6.41 34.5893 6.68628 35.1971 7.0178C35.4734 7.18357 35.8049 7.34933 36.0812 7.51509C36.3574 7.68086 36.689 7.84662 36.9652 8.06764C38.1256 8.84121 39.2307 9.72528 40.2253 10.7199C41.2198 11.7144 42.1592 12.8195 42.8775 13.9799C43.651 15.1402 44.2588 16.3558 44.8114 17.6267C45.3087 18.8975 45.6955 20.1684 45.9717 21.4945C46.0822 22.1023 46.1927 22.7101 46.248 23.3732C46.3033 24.0915 46.3585 24.7545 46.3585 25.4728C46.3585 26.9095 46.248 28.3461 45.9717 29.7274Z" fill="url(#paint1_linear)"/>
<defs>
<linearGradient id="paint0_linear" x1="30.7216" y1="12.4326" x2="30.7216" y2="39.0653" gradientUnits="userSpaceOnUse">
<stop stop-color="#E87B43"/>
<stop offset="1" stop-color="#E87B43" stop-opacity="0.5"/>
</linearGradient>
<linearGradient id="paint1_linear" x1="25.5828" y1="3.09473" x2="25.5828" y2="47.9615" gradientUnits="userSpaceOnUse">
<stop stop-color="#E87B43"/>
<stop offset="1" stop-color="#E87B43" stop-opacity="0.5"/>
</linearGradient>
</defs>
</svg>
