<svg width="132" height="59" viewBox="0 0 132 59" fill="none" xmlns="http://www.w3.org/2000/svg">
    <g clip-path="url(#clip0)">
        <path d="M26.1509 9.96974V43.337C26.1509 43.7845 25.8232 44.0402 25.3645 44.0402H20.5144C20.0556 44.0402 19.7934 43.7206 19.7934 43.337L19.6624 40.7801C17.9583 43.2092 15.3366 44.7433 11.6663 44.7433C4.71897 44.6794 0 39.3099 0 32.1507C0 25.0553 4.71897 19.622 11.6663 19.622C15.0745 19.622 17.565 20.9004 19.2036 23.0098V9.96974C19.2036 9.52229 19.5313 9.2666 19.9245 9.2666H25.3645C25.8232 9.2666 26.1509 9.58621 26.1509 9.96974ZM19.2691 32.1507C19.2691 28.3154 16.713 25.7585 13.0427 25.7585C9.37239 25.7585 6.6852 28.3154 6.6852 32.1507C6.6852 35.986 9.37239 38.5429 13.0427 38.5429C16.713 38.5429 19.2691 36.0499 19.2691 32.1507Z"
              fill="white"/>
        <path d="M55.1847 20.9639V43.4005C55.1847 43.848 54.8569 44.1037 54.4637 44.1037H49.2859C48.8272 44.1037 48.565 43.9119 48.565 43.3366L48.3684 40.524C46.992 42.9531 44.6325 44.7429 40.9622 44.7429C35.85 44.7429 32.1797 41.1632 32.1797 34.8989V20.9639C32.1797 20.5164 32.5074 20.2607 32.9006 20.2607H38.275C38.7338 20.2607 39.0615 20.5804 39.0615 20.9639V33.3648C39.0615 36.7526 40.6345 38.5424 43.5839 38.5424C46.4677 38.5424 48.3684 36.7526 48.3684 33.3648V20.9639C48.3684 20.5164 48.6961 20.2607 49.0893 20.2607H54.4637C54.9225 20.2607 55.1847 20.5164 55.1847 20.9639Z"
              fill="white"/>
        <path d="M81.4679 34.7072H66.6556C67.3766 37.7116 69.8672 39.3735 73.8652 39.3735C75.7659 39.3735 77.5355 39.0539 79.5673 37.9033C79.895 37.7116 80.1571 37.7755 80.4193 38.0951L82.2544 40.588C82.5166 40.9077 82.4511 41.2912 81.9923 41.6747C79.895 43.7202 76.749 44.6791 73.2753 44.6791C65.2137 44.6791 59.8394 39.2457 59.8394 32.0864C59.8394 25.055 64.886 19.6855 72.4233 19.6855C79.895 19.6855 84.1551 25.055 84.1551 31.0637C84.1551 33.3649 83.6308 34.7072 81.4679 34.7072ZM66.5246 29.977H77.9943C77.601 26.7809 75.3726 25.1828 72.4233 25.1828C69.4739 25.1828 67.1144 26.7809 66.5246 29.977Z"
              fill="white"/>
        <path d="M97.6573 25.4366V37.0065C97.6573 38.4128 98.5094 39.1159 99.8202 39.1159C100.279 39.1159 100.738 39.1159 101.393 39.052C101.918 38.9881 102.311 39.2438 102.311 39.7551V43.3348C102.311 44.4854 99.8202 44.7411 98.1817 44.7411C94.3147 44.7411 90.7755 43.0152 90.7755 37.7736V25.4366H87.6951C87.2363 25.4366 86.9741 25.117 86.9741 24.7335V20.9621C86.9741 20.5146 87.3018 20.2589 87.6951 20.2589H90.7755V14.6338C90.7755 14.1864 91.1032 13.9307 91.4965 13.9307H96.9364C97.3952 13.9307 97.6573 14.2503 97.6573 14.6338V20.2589H101.524C101.983 20.2589 102.245 20.5785 102.245 20.9621V24.7335C102.245 25.1809 101.918 25.4366 101.524 25.4366H97.6573Z"
              fill="#87C7C9"/>
        <path d="M111.945 25.4366V37.0065C111.945 38.4128 112.797 39.1159 114.108 39.1159C114.567 39.1159 115.026 39.1159 115.681 39.052C116.206 38.9881 116.599 39.2438 116.599 39.7551V43.3348C116.599 44.4854 114.108 44.7411 112.47 44.7411C108.603 44.7411 105.064 43.0152 105.064 37.7736V25.4366H101.983C101.524 25.4366 101.262 25.117 101.262 24.7335V20.9621C101.262 20.5146 101.59 20.2589 101.983 20.2589H105.064V14.6338C105.064 14.1864 105.391 13.9307 105.785 13.9307H111.224C111.683 13.9307 111.945 14.2503 111.945 14.6338V20.2589H115.812C116.271 20.2589 116.533 20.5785 116.533 20.9621V24.7335C116.533 25.1809 116.206 25.4366 115.812 25.4366H111.945Z"
              fill="#E87B43"/>
        <path d="M111.945 25.4366V37.0065C111.945 38.4128 112.797 39.1159 114.108 39.1159C114.567 39.1159 115.026 39.1159 115.681 39.052C116.206 38.9881 116.599 39.2438 116.599 39.7551V43.3348C116.599 44.4854 114.108 44.7411 112.47 44.7411C108.603 44.7411 105.064 43.0152 105.064 37.7736V25.4366H101.983C101.524 25.4366 101.262 25.117 101.262 24.7335V20.9621C101.262 20.5146 101.59 20.2589 101.983 20.2589H105.064V14.6338C105.064 14.1864 105.391 13.9307 105.785 13.9307H111.224C111.683 13.9307 111.945 14.2503 111.945 14.6338V20.2589H115.812C116.271 20.2589 116.533 20.5785 116.533 20.9621V24.7335C116.533 25.1809 116.206 25.4366 115.812 25.4366H111.945Z"
              fill="url(#paint0_linear)"/>
        <path d="M131.344 23.5848C130.951 21.6671 130.361 19.8134 129.574 18.0236C128.788 16.2977 127.87 14.5718 126.756 13.0377C125.642 11.5036 124.397 10.0333 123.086 8.69099C121.709 7.34863 120.202 6.13411 118.629 5.11136C116.99 4.02469 115.286 3.12978 113.517 2.36271C111.682 1.59565 109.781 1.02035 107.815 0.636821C103.817 -0.130242 99.6219 -0.130242 95.6239 0.636821C93.6577 1.02035 91.757 1.59565 89.9218 2.36271C88.1522 3.12978 86.3826 4.02469 84.8096 5.11136C83.2366 6.19803 81.7292 7.41255 80.3528 8.69099C79.3042 9.71374 78.321 10.8004 77.4035 12.0149C77.0758 12.4624 77.2724 13.1655 77.8623 13.3573C78.19 13.4851 78.5832 13.3573 78.8454 13.0377C79.6974 11.951 80.615 10.8643 81.5981 9.90551C82.9089 8.62707 84.2853 7.47647 85.7927 6.51764C87.3002 5.49489 88.9387 4.6639 90.6428 3.96076C92.3469 3.25762 94.182 2.68232 96.0172 2.36271C99.753 1.59565 103.751 1.59565 107.487 2.36271C109.322 2.74625 111.092 3.25762 112.861 3.96076C114.565 4.6639 116.204 5.49489 117.711 6.51764C119.219 7.54039 120.661 8.62707 121.906 9.90551C123.217 11.1839 124.397 12.5263 125.38 13.9965C126.428 15.4667 127.28 17.0648 128.001 18.7267C128.722 20.3887 129.312 22.1785 129.64 23.9683C130.033 25.8221 130.23 27.6758 130.23 29.5935C130.23 31.5111 130.033 33.3649 129.64 35.2186C129.247 37.0084 128.722 38.7343 128.001 40.4602C127.28 42.1222 126.428 43.7202 125.38 45.1904C124.331 46.6606 123.217 48.0669 121.906 49.2814C120.595 50.5599 119.219 51.7105 117.711 52.6693C116.204 53.6921 114.565 54.523 112.861 55.2262C111.157 55.9293 109.322 56.5046 107.487 56.8242C103.751 57.5913 99.753 57.5913 96.0172 56.8242C94.182 56.4407 92.4124 55.9293 90.6428 55.2262C88.9387 54.523 87.3002 53.6921 85.7927 52.6693C84.7441 51.9662 83.761 51.263 82.8434 50.432C82.5812 50.2403 82.2535 50.1763 81.9258 50.3042C81.3359 50.5599 81.2704 51.3269 81.7292 51.7105C82.7123 52.5415 83.761 53.3724 84.8752 54.0756C86.5137 55.1623 88.2178 56.0572 89.9874 56.8242C91.8225 57.5913 93.7232 58.1666 95.6895 58.5501C97.6557 58.9337 99.753 59.1254 101.785 59.1254C103.817 59.1254 105.914 58.9337 107.88 58.5501C109.846 58.1666 111.747 57.5913 113.582 56.8242C115.352 56.0572 117.121 55.1623 118.694 54.0756C120.267 52.9889 121.775 51.8383 123.151 50.496C124.528 49.1536 125.773 47.6834 126.822 46.1493C127.936 44.5512 128.853 42.8892 129.64 41.1633C130.426 39.3735 131.016 37.5198 131.409 35.6021C131.803 33.6845 131.999 31.639 131.999 29.6574C131.999 27.6758 131.737 25.5025 131.344 23.5848Z"
              fill="#87C7C9"/>
        <path d="M101.785 55.4848C99.9503 55.4848 98.1807 55.2931 96.4111 54.9734C94.707 54.6538 93.0029 54.1425 91.43 53.4393C89.857 52.8001 88.3495 51.9691 86.9076 51.0742C86.2522 50.6268 85.5968 50.1793 84.9414 49.6679C84.7448 49.4762 84.6137 49.2205 84.6137 48.9648C84.6137 48.7091 84.7448 48.4534 85.0069 48.2616C85.2035 48.1338 85.3346 48.0699 85.5313 48.0699C85.7279 48.0699 85.9245 48.1338 86.1211 48.2616C86.711 48.773 87.3664 49.2205 87.9563 49.604C89.2671 50.4989 90.709 51.202 92.1509 51.8413C93.6584 52.4805 95.2313 52.9279 96.8043 53.2476C98.4429 53.5672 100.081 53.7589 101.785 53.7589C103.49 53.7589 105.128 53.5672 106.767 53.2476C108.34 52.9279 109.913 52.4805 111.42 51.8413C112.862 51.202 114.304 50.4989 115.615 49.604C116.925 48.7091 118.171 47.7503 119.285 46.6636C120.399 45.5769 121.448 44.3624 122.3 43.084C123.217 41.8055 123.938 40.3992 124.594 38.993C125.249 37.5227 125.708 35.9886 126.036 34.4545C126.363 32.8564 126.56 31.1945 126.56 29.5964C126.56 27.9344 126.363 26.3364 126.036 24.7383C125.708 23.2042 125.249 21.6701 124.594 20.1999C124.004 18.7936 123.217 17.3873 122.3 16.1089C121.382 14.8304 120.399 13.6159 119.285 12.5292C118.171 11.4426 116.925 10.4198 115.615 9.58883C114.304 8.69392 112.862 7.99078 111.42 7.35156C109.913 6.71234 108.34 6.26489 106.767 5.94528C105.128 5.62567 103.49 5.4339 101.785 5.4339C100.081 5.4339 98.4429 5.62567 96.8043 5.94528C95.2313 6.26489 93.6584 6.71234 92.1509 7.35156C90.709 7.92686 89.2671 8.69392 87.9563 9.58883C86.6454 10.4837 85.4002 11.4426 84.286 12.5292C83.6306 13.1685 82.9751 13.9355 82.3197 14.6387C82.1231 14.8304 81.8609 14.9583 81.5988 14.9583C81.4677 14.9583 81.3366 14.8944 81.2055 14.8944C80.9434 14.7665 80.7467 14.5747 80.7467 14.3191C80.6812 14.0634 80.7467 13.8077 80.9434 13.6159C81.5988 12.7849 82.3197 12.0179 83.0407 11.3147C84.2204 10.1641 85.5968 9.07746 86.9732 8.11863C88.4151 7.1598 89.9225 6.39273 91.4955 5.75351C93.134 5.11429 94.7726 4.60292 96.4766 4.21938C98.2462 3.89977 100.016 3.70801 101.851 3.70801C103.686 3.70801 105.456 3.89977 107.225 4.21938C108.929 4.53899 110.634 5.05037 112.206 5.75351C113.779 6.39273 115.287 7.22372 116.729 8.11863C118.105 9.07746 119.482 10.1002 120.661 11.3147C121.841 12.4653 122.955 13.8077 123.938 15.15C124.921 16.5563 125.708 18.0265 126.363 19.5607C127.019 21.0948 127.543 22.7568 127.936 24.4187C128.264 26.1446 128.461 27.8705 128.461 29.6603C128.461 31.4502 128.264 33.176 127.936 34.9019C127.609 36.5639 127.084 38.2259 126.363 39.76C125.708 41.2941 124.856 42.7643 123.938 44.1706C122.955 45.513 121.907 46.8554 120.661 48.0059C119.482 49.1565 118.105 50.2432 116.729 51.202C115.287 52.1609 113.779 52.9279 112.206 53.5672C110.634 54.2064 108.929 54.7178 107.225 55.1013C105.39 55.2931 103.555 55.4848 101.785 55.4848Z"
              fill="#E87B43"/>
        <path d="M101.785 55.4848C99.9503 55.4848 98.1807 55.2931 96.4111 54.9734C94.707 54.6538 93.0029 54.1425 91.43 53.4393C89.857 52.8001 88.3495 51.9691 86.9076 51.0742C86.2522 50.6268 85.5968 50.1793 84.9414 49.6679C84.7448 49.4762 84.6137 49.2205 84.6137 48.9648C84.6137 48.7091 84.7448 48.4534 85.0069 48.2616C85.2035 48.1338 85.3346 48.0699 85.5313 48.0699C85.7279 48.0699 85.9245 48.1338 86.1211 48.2616C86.711 48.773 87.3664 49.2205 87.9563 49.604C89.2671 50.4989 90.709 51.202 92.1509 51.8413C93.6584 52.4805 95.2313 52.9279 96.8043 53.2476C98.4429 53.5672 100.081 53.7589 101.785 53.7589C103.49 53.7589 105.128 53.5672 106.767 53.2476C108.34 52.9279 109.913 52.4805 111.42 51.8413C112.862 51.202 114.304 50.4989 115.615 49.604C116.925 48.7091 118.171 47.7503 119.285 46.6636C120.399 45.5769 121.448 44.3624 122.3 43.084C123.217 41.8055 123.938 40.3992 124.594 38.993C125.249 37.5227 125.708 35.9886 126.036 34.4545C126.363 32.8564 126.56 31.1945 126.56 29.5964C126.56 27.9344 126.363 26.3364 126.036 24.7383C125.708 23.2042 125.249 21.6701 124.594 20.1999C124.004 18.7936 123.217 17.3873 122.3 16.1089C121.382 14.8304 120.399 13.6159 119.285 12.5292C118.171 11.4426 116.925 10.4198 115.615 9.58883C114.304 8.69392 112.862 7.99078 111.42 7.35156C109.913 6.71234 108.34 6.26489 106.767 5.94528C105.128 5.62567 103.49 5.4339 101.785 5.4339C100.081 5.4339 98.4429 5.62567 96.8043 5.94528C95.2313 6.26489 93.6584 6.71234 92.1509 7.35156C90.709 7.92686 89.2671 8.69392 87.9563 9.58883C86.6454 10.4837 85.4002 11.4426 84.286 12.5292C83.6306 13.1685 82.9751 13.9355 82.3197 14.6387C82.1231 14.8304 81.8609 14.9583 81.5988 14.9583C81.4677 14.9583 81.3366 14.8944 81.2055 14.8944C80.9434 14.7665 80.7467 14.5747 80.7467 14.3191C80.6812 14.0634 80.7467 13.8077 80.9434 13.6159C81.5988 12.7849 82.3197 12.0179 83.0407 11.3147C84.2204 10.1641 85.5968 9.07746 86.9732 8.11863C88.4151 7.1598 89.9225 6.39273 91.4955 5.75351C93.134 5.11429 94.7726 4.60292 96.4766 4.21938C98.2462 3.89977 100.016 3.70801 101.851 3.70801C103.686 3.70801 105.456 3.89977 107.225 4.21938C108.929 4.53899 110.634 5.05037 112.206 5.75351C113.779 6.39273 115.287 7.22372 116.729 8.11863C118.105 9.07746 119.482 10.1002 120.661 11.3147C121.841 12.4653 122.955 13.8077 123.938 15.15C124.921 16.5563 125.708 18.0265 126.363 19.5607C127.019 21.0948 127.543 22.7568 127.936 24.4187C128.264 26.1446 128.461 27.8705 128.461 29.6603C128.461 31.4502 128.264 33.176 127.936 34.9019C127.609 36.5639 127.084 38.2259 126.363 39.76C125.708 41.2941 124.856 42.7643 123.938 44.1706C122.955 45.513 121.907 46.8554 120.661 48.0059C119.482 49.1565 118.105 50.2432 116.729 51.202C115.287 52.1609 113.779 52.9279 112.206 53.5672C110.634 54.2064 108.929 54.7178 107.225 55.1013C105.39 55.2931 103.555 55.4848 101.785 55.4848Z"
              fill="url(#paint1_linear)"/>
    </g>
    <defs>
        <linearGradient id="paint0_linear" x1="108.931" y1="13.9307" x2="108.931" y2="44.7411"
                        gradientUnits="userSpaceOnUse">
            <stop stop-color="#E87B43"/>
            <stop offset="1" stop-color="#E87B43" stop-opacity="0.5"/>
        </linearGradient>
        <linearGradient id="paint1_linear" x1="104.591" y1="3.70801" x2="104.591" y2="55.4848"
                        gradientUnits="userSpaceOnUse">
            <stop stop-color="#E87B43"/>
            <stop offset="1" stop-color="#E87B43" stop-opacity="0.5"/>
        </linearGradient>
        <clipPath id="clip0">
            <rect width="132" height="59" fill="white"/>
        </clipPath>
    </defs>
</svg>
