<svg xmlns="http://www.w3.org/2000/svg" width="132" height="59" viewBox="0 0 132 59" fill="none">
  <g clip-path="url(#clip0_551_19723)">
    <path d="M26.1509 9.97023V43.3375C26.1509 43.785 25.8232 44.0407 25.3645 44.0407H20.5144C20.0556 44.0407 19.7934 43.7211 19.7934 43.3375L19.6624 40.7806C17.9583 43.2097 15.3366 44.7438 11.6663 44.7438C4.71897 44.6799 0 39.3104 0 32.1512C0 25.0558 4.71897 19.6225 11.6663 19.6225C15.0745 19.6225 17.565 20.9009 19.2036 23.0103V9.97023C19.2036 9.52278 19.5313 9.26709 19.9245 9.26709H25.3645C25.8232 9.26709 26.1509 9.5867 26.1509 9.97023ZM19.2691 32.1512C19.2691 28.3158 16.713 25.759 13.0427 25.759C9.37239 25.759 6.6852 28.3158 6.6852 32.1512C6.6852 35.9865 9.37239 38.5434 13.0427 38.5434C16.713 38.5434 19.2691 36.0504 19.2691 32.1512Z" fill="#E87B43"/>
    <path d="M26.1509 9.97023V43.3375C26.1509 43.785 25.8232 44.0407 25.3645 44.0407H20.5144C20.0556 44.0407 19.7934 43.7211 19.7934 43.3375L19.6624 40.7806C17.9583 43.2097 15.3366 44.7438 11.6663 44.7438C4.71897 44.6799 0 39.3104 0 32.1512C0 25.0558 4.71897 19.6225 11.6663 19.6225C15.0745 19.6225 17.565 20.9009 19.2036 23.0103V9.97023C19.2036 9.52278 19.5313 9.26709 19.9245 9.26709H25.3645C25.8232 9.26709 26.1509 9.5867 26.1509 9.97023ZM19.2691 32.1512C19.2691 28.3158 16.713 25.759 13.0427 25.759C9.37239 25.759 6.6852 28.3158 6.6852 32.1512C6.6852 35.9865 9.37239 38.5434 13.0427 38.5434C16.713 38.5434 19.2691 36.0504 19.2691 32.1512Z" fill="url(#paint0_linear_551_19723)"/>
    <path d="M55.1844 20.9649V43.4015C55.1844 43.8489 54.8567 44.1046 54.4635 44.1046H49.2857C48.8269 44.1046 48.5647 43.9129 48.5647 43.3376L48.3681 40.525C46.9918 42.954 44.6323 44.7439 40.962 44.7439C35.8498 44.7439 32.1794 41.1642 32.1794 34.8999V20.9649C32.1794 20.5174 32.5072 20.2617 32.9004 20.2617H38.2748C38.7336 20.2617 39.0613 20.5813 39.0613 20.9649V33.3657C39.0613 36.7536 40.6343 38.5434 43.5836 38.5434C46.4674 38.5434 48.3681 36.7536 48.3681 33.3657V20.9649C48.3681 20.5174 48.6958 20.2617 49.0891 20.2617H54.4635C54.9222 20.2617 55.1844 20.5174 55.1844 20.9649Z" fill="#E87B43"/>
    <path d="M55.1844 20.9649V43.4015C55.1844 43.8489 54.8567 44.1046 54.4635 44.1046H49.2857C48.8269 44.1046 48.5647 43.9129 48.5647 43.3376L48.3681 40.525C46.9918 42.954 44.6323 44.7439 40.962 44.7439C35.8498 44.7439 32.1794 41.1642 32.1794 34.8999V20.9649C32.1794 20.5174 32.5072 20.2617 32.9004 20.2617H38.2748C38.7336 20.2617 39.0613 20.5813 39.0613 20.9649V33.3657C39.0613 36.7536 40.6343 38.5434 43.5836 38.5434C46.4674 38.5434 48.3681 36.7536 48.3681 33.3657V20.9649C48.3681 20.5174 48.6958 20.2617 49.0891 20.2617H54.4635C54.9222 20.2617 55.1844 20.5174 55.1844 20.9649Z" fill="url(#paint1_linear_551_19723)"/>
    <path d="M81.4681 34.7077H66.6558C67.3767 37.712 69.8673 39.374 73.8653 39.374C75.766 39.374 77.5356 39.0544 79.5674 37.9038C79.8951 37.712 80.1572 37.776 80.4194 38.0956L82.2546 40.5885C82.5167 40.9081 82.4512 41.2917 81.9924 41.6752C79.8951 43.7207 76.7491 44.6795 73.2754 44.6795C65.2139 44.6795 59.8395 39.2462 59.8395 32.0869C59.8395 25.0555 64.8861 19.686 72.4234 19.686C79.8951 19.686 84.1553 25.0555 84.1553 31.0642C84.1553 33.3653 83.6309 34.7077 81.4681 34.7077ZM66.5247 29.9775H77.9944C77.6011 26.7814 75.3727 25.1833 72.4234 25.1833C69.474 25.1833 67.1145 26.7814 66.5247 29.9775Z" fill="#E87B43"/>
    <path d="M81.4681 34.7077H66.6558C67.3767 37.712 69.8673 39.374 73.8653 39.374C75.766 39.374 77.5356 39.0544 79.5674 37.9038C79.8951 37.712 80.1572 37.776 80.4194 38.0956L82.2546 40.5885C82.5167 40.9081 82.4512 41.2917 81.9924 41.6752C79.8951 43.7207 76.7491 44.6795 73.2754 44.6795C65.2139 44.6795 59.8395 39.2462 59.8395 32.0869C59.8395 25.0555 64.8861 19.686 72.4234 19.686C79.8951 19.686 84.1553 25.0555 84.1553 31.0642C84.1553 33.3653 83.6309 34.7077 81.4681 34.7077ZM66.5247 29.9775H77.9944C77.6011 26.7814 75.3727 25.1833 72.4234 25.1833C69.474 25.1833 67.1145 26.7814 66.5247 29.9775Z" fill="url(#paint2_linear_551_19723)"/>
    <path d="M97.6573 25.4376V37.0075C97.6573 38.4138 98.5094 39.1169 99.8202 39.1169C100.279 39.1169 100.738 39.1169 101.393 39.053C101.918 38.989 102.311 39.2447 102.311 39.7561V43.3357C102.311 44.4863 99.8202 44.742 98.1817 44.742C94.3147 44.742 90.7755 43.0161 90.7755 37.7745V25.4376H87.6951C87.2363 25.4376 86.9741 25.118 86.9741 24.7345V20.9631C86.9741 20.5156 87.3018 20.2599 87.6951 20.2599H90.7755V14.6348C90.7755 14.1873 91.1032 13.9316 91.4965 13.9316H96.9364C97.3952 13.9316 97.6573 14.2513 97.6573 14.6348V20.2599H101.524C101.983 20.2599 102.245 20.5795 102.245 20.9631V24.7345C102.245 25.1819 101.918 25.4376 101.524 25.4376H97.6573Z" fill="#87C7C9"/>
    <path d="M111.945 25.4376V37.0075C111.945 38.4138 112.797 39.1169 114.108 39.1169C114.567 39.1169 115.026 39.1169 115.681 39.053C116.206 38.989 116.599 39.2447 116.599 39.7561V43.3357C116.599 44.4863 114.108 44.742 112.47 44.742C108.603 44.742 105.064 43.0161 105.064 37.7745V25.4376H101.983C101.524 25.4376 101.262 25.118 101.262 24.7345V20.9631C101.262 20.5156 101.59 20.2599 101.983 20.2599H105.064V14.6348C105.064 14.1873 105.391 13.9316 105.785 13.9316H111.224C111.683 13.9316 111.945 14.2513 111.945 14.6348V20.2599H115.812C116.271 20.2599 116.533 20.5795 116.533 20.9631V24.7345C116.533 25.1819 116.206 25.4376 115.812 25.4376H111.945Z" fill="#E87B43"/>
    <path d="M111.945 25.4376V37.0075C111.945 38.4138 112.797 39.1169 114.108 39.1169C114.567 39.1169 115.026 39.1169 115.681 39.053C116.206 38.989 116.599 39.2447 116.599 39.7561V43.3357C116.599 44.4863 114.108 44.742 112.47 44.742C108.603 44.742 105.064 43.0161 105.064 37.7745V25.4376H101.983C101.524 25.4376 101.262 25.118 101.262 24.7345V20.9631C101.262 20.5156 101.59 20.2599 101.983 20.2599H105.064V14.6348C105.064 14.1873 105.391 13.9316 105.785 13.9316H111.224C111.683 13.9316 111.945 14.2513 111.945 14.6348V20.2599H115.812C116.271 20.2599 116.533 20.5795 116.533 20.9631V24.7345C116.533 25.1819 116.206 25.4376 115.812 25.4376H111.945Z" fill="url(#paint3_linear_551_19723)"/>
    <path d="M131.344 23.5848C130.951 21.6671 130.361 19.8134 129.574 18.0236C128.788 16.2977 127.87 14.5718 126.756 13.0377C125.642 11.5036 124.397 10.0333 123.086 8.69099C121.709 7.34863 120.202 6.13411 118.629 5.11136C116.99 4.02469 115.286 3.12978 113.517 2.36271C111.682 1.59565 109.781 1.02035 107.815 0.636821C103.817 -0.130242 99.6219 -0.130242 95.6239 0.636821C93.6577 1.02035 91.757 1.59565 89.9218 2.36271C88.1522 3.12978 86.3826 4.02469 84.8096 5.11136C83.2366 6.19803 81.7292 7.41255 80.3528 8.69099C79.3042 9.71374 78.321 10.8004 77.4035 12.0149C77.0758 12.4624 77.2724 13.1655 77.8623 13.3573C78.19 13.4851 78.5832 13.3573 78.8454 13.0377C79.6974 11.951 80.615 10.8643 81.5981 9.90551C82.9089 8.62707 84.2853 7.47647 85.7927 6.51764C87.3002 5.49489 88.9387 4.6639 90.6428 3.96076C92.3469 3.25762 94.182 2.68232 96.0172 2.36271C99.753 1.59565 103.751 1.59565 107.487 2.36271C109.322 2.74625 111.092 3.25762 112.861 3.96076C114.565 4.6639 116.204 5.49489 117.711 6.51764C119.219 7.54039 120.661 8.62707 121.906 9.90551C123.217 11.1839 124.397 12.5263 125.38 13.9965C126.428 15.4667 127.28 17.0648 128.001 18.7267C128.722 20.3887 129.312 22.1785 129.64 23.9683C130.033 25.8221 130.23 27.6758 130.23 29.5935C130.23 31.5111 130.033 33.3649 129.64 35.2186C129.247 37.0084 128.722 38.7343 128.001 40.4602C127.28 42.1222 126.428 43.7202 125.38 45.1904C124.331 46.6606 123.217 48.0669 121.906 49.2814C120.595 50.5599 119.219 51.7105 117.711 52.6693C116.204 53.6921 114.565 54.523 112.861 55.2262C111.157 55.9293 109.322 56.5046 107.487 56.8242C103.751 57.5913 99.753 57.5913 96.0172 56.8242C94.182 56.4407 92.4124 55.9293 90.6428 55.2262C88.9387 54.523 87.3002 53.6921 85.7927 52.6693C84.7441 51.9662 83.761 51.263 82.8434 50.432C82.5812 50.2403 82.2535 50.1763 81.9258 50.3042C81.3359 50.5599 81.2704 51.3269 81.7292 51.7105C82.7123 52.5415 83.761 53.3724 84.8752 54.0756C86.5137 55.1623 88.2178 56.0572 89.9874 56.8242C91.8225 57.5913 93.7232 58.1666 95.6895 58.5501C97.6557 58.9337 99.753 59.1254 101.785 59.1254C103.817 59.1254 105.914 58.9337 107.88 58.5501C109.846 58.1666 111.747 57.5913 113.582 56.8242C115.352 56.0572 117.121 55.1623 118.694 54.0756C120.267 52.9889 121.775 51.8383 123.151 50.496C124.528 49.1536 125.773 47.6834 126.822 46.1493C127.936 44.5512 128.853 42.8892 129.64 41.1633C130.426 39.3735 131.016 37.5198 131.409 35.6021C131.803 33.6845 131.999 31.639 131.999 29.6574C131.999 27.6758 131.737 25.5025 131.344 23.5848Z" fill="#87C7C9"/>
    <path d="M101.786 55.4848C99.9504 55.4848 98.1808 55.2931 96.4112 54.9734C94.7071 54.6538 93.0031 54.1425 91.4301 53.4393C89.8571 52.8001 88.3496 51.9691 86.9077 51.0742C86.2523 50.6268 85.5969 50.1793 84.9415 49.6679C84.7449 49.4762 84.6138 49.2205 84.6138 48.9648C84.6138 48.7091 84.7449 48.4534 85.007 48.2616C85.2037 48.1338 85.3348 48.0699 85.5314 48.0699C85.728 48.0699 85.9246 48.1338 86.1212 48.2616C86.7111 48.773 87.3665 49.2205 87.9564 49.604C89.2672 50.4989 90.7091 51.202 92.151 51.8413C93.6585 52.4805 95.2315 52.9279 96.8045 53.2476C98.443 53.5672 100.082 53.7589 101.786 53.7589C103.49 53.7589 105.128 53.5672 106.767 53.2476C108.34 52.9279 109.913 52.4805 111.42 51.8413C112.862 51.202 114.304 50.4989 115.615 49.604C116.926 48.7091 118.171 47.7503 119.285 46.6636C120.399 45.5769 121.448 44.3624 122.3 43.084C123.218 41.8055 123.938 40.3992 124.594 38.993C125.249 37.5227 125.708 35.9886 126.036 34.4545C126.364 32.8564 126.56 31.1945 126.56 29.5964C126.56 27.9344 126.364 26.3364 126.036 24.7383C125.708 23.2042 125.249 21.6701 124.594 20.1999C124.004 18.7936 123.218 17.3873 122.3 16.1089C121.382 14.8304 120.399 13.6159 119.285 12.5292C118.171 11.4426 116.926 10.4198 115.615 9.58883C114.304 8.69392 112.862 7.99078 111.42 7.35156C109.913 6.71234 108.34 6.26489 106.767 5.94528C105.128 5.62567 103.49 5.4339 101.786 5.4339C100.082 5.4339 98.443 5.62567 96.8045 5.94528C95.2315 6.26489 93.6585 6.71234 92.151 7.35156C90.7091 7.92686 89.2672 8.69392 87.9564 9.58883C86.6456 10.4837 85.4003 11.4426 84.2861 12.5292C83.6307 13.1685 82.9753 13.9355 82.3199 14.6387C82.1232 14.8304 81.8611 14.9583 81.5989 14.9583C81.4678 14.9583 81.3367 14.8944 81.2057 14.8944C80.9435 14.7665 80.7469 14.5747 80.7469 14.3191C80.6813 14.0634 80.7469 13.8077 80.9435 13.6159C81.5989 12.7849 82.3199 12.0179 83.0408 11.3147C84.2205 10.1641 85.5969 9.07746 86.9733 8.11863C88.4152 7.1598 89.9226 6.39273 91.4956 5.75351C93.1342 5.11429 94.7727 4.60292 96.4767 4.21938C98.2464 3.89977 100.016 3.70801 101.851 3.70801C103.686 3.70801 105.456 3.89977 107.226 4.21938C108.93 4.53899 110.634 5.05037 112.207 5.75351C113.78 6.39273 115.287 7.22372 116.729 8.11863C118.105 9.07746 119.482 10.1002 120.661 11.3147C121.841 12.4653 122.955 13.8077 123.938 15.15C124.922 16.5563 125.708 18.0265 126.364 19.5607C127.019 21.0948 127.543 22.7568 127.936 24.4187C128.264 26.1446 128.461 27.8705 128.461 29.6603C128.461 31.4502 128.264 33.176 127.936 34.9019C127.609 36.5639 127.084 38.2259 126.364 39.76C125.708 41.2941 124.856 42.7643 123.938 44.1706C122.955 45.513 121.907 46.8554 120.661 48.0059C119.482 49.1565 118.105 50.2432 116.729 51.202C115.287 52.1609 113.78 52.9279 112.207 53.5672C110.634 54.2064 108.93 54.7178 107.226 55.1013C105.39 55.2931 103.555 55.4848 101.786 55.4848Z" fill="#E87B43"/>
    <path d="M101.786 55.4848C99.9504 55.4848 98.1808 55.2931 96.4112 54.9734C94.7071 54.6538 93.0031 54.1425 91.4301 53.4393C89.8571 52.8001 88.3496 51.9691 86.9077 51.0742C86.2523 50.6268 85.5969 50.1793 84.9415 49.6679C84.7449 49.4762 84.6138 49.2205 84.6138 48.9648C84.6138 48.7091 84.7449 48.4534 85.007 48.2616C85.2037 48.1338 85.3348 48.0699 85.5314 48.0699C85.728 48.0699 85.9246 48.1338 86.1212 48.2616C86.7111 48.773 87.3665 49.2205 87.9564 49.604C89.2672 50.4989 90.7091 51.202 92.151 51.8413C93.6585 52.4805 95.2315 52.9279 96.8045 53.2476C98.443 53.5672 100.082 53.7589 101.786 53.7589C103.49 53.7589 105.128 53.5672 106.767 53.2476C108.34 52.9279 109.913 52.4805 111.42 51.8413C112.862 51.202 114.304 50.4989 115.615 49.604C116.926 48.7091 118.171 47.7503 119.285 46.6636C120.399 45.5769 121.448 44.3624 122.3 43.084C123.218 41.8055 123.938 40.3992 124.594 38.993C125.249 37.5227 125.708 35.9886 126.036 34.4545C126.364 32.8564 126.56 31.1945 126.56 29.5964C126.56 27.9344 126.364 26.3364 126.036 24.7383C125.708 23.2042 125.249 21.6701 124.594 20.1999C124.004 18.7936 123.218 17.3873 122.3 16.1089C121.382 14.8304 120.399 13.6159 119.285 12.5292C118.171 11.4426 116.926 10.4198 115.615 9.58883C114.304 8.69392 112.862 7.99078 111.42 7.35156C109.913 6.71234 108.34 6.26489 106.767 5.94528C105.128 5.62567 103.49 5.4339 101.786 5.4339C100.082 5.4339 98.443 5.62567 96.8045 5.94528C95.2315 6.26489 93.6585 6.71234 92.151 7.35156C90.7091 7.92686 89.2672 8.69392 87.9564 9.58883C86.6456 10.4837 85.4003 11.4426 84.2861 12.5292C83.6307 13.1685 82.9753 13.9355 82.3199 14.6387C82.1232 14.8304 81.8611 14.9583 81.5989 14.9583C81.4678 14.9583 81.3367 14.8944 81.2057 14.8944C80.9435 14.7665 80.7469 14.5747 80.7469 14.3191C80.6813 14.0634 80.7469 13.8077 80.9435 13.6159C81.5989 12.7849 82.3199 12.0179 83.0408 11.3147C84.2205 10.1641 85.5969 9.07746 86.9733 8.11863C88.4152 7.1598 89.9226 6.39273 91.4956 5.75351C93.1342 5.11429 94.7727 4.60292 96.4767 4.21938C98.2464 3.89977 100.016 3.70801 101.851 3.70801C103.686 3.70801 105.456 3.89977 107.226 4.21938C108.93 4.53899 110.634 5.05037 112.207 5.75351C113.78 6.39273 115.287 7.22372 116.729 8.11863C118.105 9.07746 119.482 10.1002 120.661 11.3147C121.841 12.4653 122.955 13.8077 123.938 15.15C124.922 16.5563 125.708 18.0265 126.364 19.5607C127.019 21.0948 127.543 22.7568 127.936 24.4187C128.264 26.1446 128.461 27.8705 128.461 29.6603C128.461 31.4502 128.264 33.176 127.936 34.9019C127.609 36.5639 127.084 38.2259 126.364 39.76C125.708 41.2941 124.856 42.7643 123.938 44.1706C122.955 45.513 121.907 46.8554 120.661 48.0059C119.482 49.1565 118.105 50.2432 116.729 51.202C115.287 52.1609 113.78 52.9279 112.207 53.5672C110.634 54.2064 108.93 54.7178 107.226 55.1013C105.39 55.2931 103.555 55.4848 101.786 55.4848Z" fill="url(#paint4_linear_551_19723)"/>
  </g>
  <defs>
    <linearGradient id="paint0_linear_551_19723" x1="13.0755" y1="9.26709" x2="13.0755" y2="44.7438" gradientUnits="userSpaceOnUse">
      <stop stop-color="#E87B43"/>
      <stop offset="1" stop-color="#E87B43" stop-opacity="0.5"/>
    </linearGradient>
    <linearGradient id="paint1_linear_551_19723" x1="43.6819" y1="20.2617" x2="43.6819" y2="44.7439" gradientUnits="userSpaceOnUse">
      <stop stop-color="#E87B43"/>
      <stop offset="1" stop-color="#E87B43" stop-opacity="0.5"/>
    </linearGradient>
    <linearGradient id="paint2_linear_551_19723" x1="71.9974" y1="19.686" x2="71.9974" y2="44.6795" gradientUnits="userSpaceOnUse">
      <stop stop-color="#E87B43"/>
      <stop offset="1" stop-color="#E87B43" stop-opacity="0.5"/>
    </linearGradient>
    <linearGradient id="paint3_linear_551_19723" x1="108.931" y1="13.9316" x2="108.931" y2="44.742" gradientUnits="userSpaceOnUse">
      <stop stop-color="#E87B43"/>
      <stop offset="1" stop-color="#E87B43" stop-opacity="0.5"/>
    </linearGradient>
    <linearGradient id="paint4_linear_551_19723" x1="104.592" y1="3.70801" x2="104.592" y2="55.4848" gradientUnits="userSpaceOnUse">
      <stop stop-color="#E87B43"/>
      <stop offset="1" stop-color="#E87B43" stop-opacity="0.5"/>
    </linearGradient>
    <clipPath id="clip0_551_19723">
      <rect width="132" height="59" fill="white"/>
    </clipPath>
  </defs>
</svg>
